<svg width="600px" height="574px"
 viewBox="0.00 0.00 547.88 523.90" xmlns="http://www.w3.org/2000/svg" xmlns:xlink="http://www.w3.org/1999/xlink">
<g id="graph0" class="graph" transform="scale(1.0 1.0) rotate(0) translate(4 519.8968)">
<title>tf_viz</title>
<polygon fill="#ffffff" stroke="transparent" points="-4,4 -4,-519.8968 543.8789,-519.8968 543.8789,4 -4,4"/>
<g id="clust1" class="cluster">
<title>cluster_LIDAR</title>
<polygon fill="#d3d3d3" stroke="#d3d3d3" points="377.4412,-116.8968 377.4412,-353.8968 520.8299,-353.8968 520.8299,-116.8968 377.4412,-116.8968"/>
<text text-anchor="middle" x="449.1355" y="-338.6968" font-family="Times,serif" font-size="14.00" fill="#000000">LIDAR</text>
</g>
<g id="clust2" class="cluster">
<title>cluster_Camera</title>
<polygon fill="#bfefff" stroke="#bfefff" points="366.3922,-361.8968 366.3922,-436.8968 531.8789,-436.8968 531.8789,-361.8968 366.3922,-361.8968"/>
<text text-anchor="middle" x="449.1355" y="-421.6968" font-family="Times,serif" font-size="14.00" fill="#000000">Camera</text>
</g>
<!-- base_link -->
<g id="node1" class="node">
<title>base_link</title>
<ellipse fill="none" stroke="#ff0000" cx="44.1961" cy="-223.8968" rx="44.393" ry="18"/>
<text text-anchor="middle" x="44.1961" y="-220.1968" font-family="Times,serif" font-size="14.00" fill="#000000">base_link</text>
</g>
<!-- duro_gps -->
<g id="node2" class="node">
<title>duro_gps</title>
<ellipse fill="#ffffff" stroke="#000000" cx="449.1355" cy="-462.8968" rx="43.5923" ry="18"/>
<text text-anchor="middle" x="449.1355" y="-459.1968" font-family="Times,serif" font-size="14.00" fill="#000000">duro_gps</text>
</g>
<!-- base_link&#45;&gt;duro_gps -->
<g id="edge1" class="edge">
<title>base_link&#45;&gt;duro_gps</title>
<path fill="none" stroke="#000000" d="M46.8947,-242.0592C54.1983,-288.5741 75.8757,-410.0762 106.3922,-434.8968 190.9306,-503.6562 329.1516,-488.6008 401.5312,-474.2941"/>
<polygon fill="#000000" stroke="#000000" points="402.6284,-477.6417 411.7182,-472.1987 401.2181,-470.7853 402.6284,-477.6417"/>
<text text-anchor="middle" x="231.3922" y="-504.6968" font-family="Times,serif" font-size="14.00" fill="#000000">duro_gps: 0.0 m, 0.0 m, 0.2 m;</text>
<text text-anchor="middle" x="231.3922" y="-489.6968" font-family="Times,serif" font-size="14.00" fill="#000000">0.0°, 0.0°, 0.0°</text>
</g>
<!-- zed_camera_front -->
<g id="node3" class="node">
<title>zed_camera_front</title>
<ellipse fill="#ffffff" stroke="#000000" cx="449.1355" cy="-387.8968" rx="74.9875" ry="18"/>
<text text-anchor="middle" x="449.1355" y="-384.1968" font-family="Times,serif" font-size="14.00" fill="#000000">zed_camera_front</text>
</g>
<!-- base_link&#45;&gt;zed_camera_front -->
<g id="edge2" class="edge">
<title>base_link&#45;&gt;zed_camera_front</title>
<path fill="none" stroke="#000000" d="M47.678,-242.2269C54.0222,-270.1118 70.2933,-322.6111 106.3922,-347.8968 185.3575,-403.2086 300.4882,-404.7858 375.1089,-398.329"/>
<polygon fill="#000000" stroke="#000000" points="375.7311,-401.7862 385.3614,-397.3694 375.0787,-394.8167 375.7311,-401.7862"/>
<text text-anchor="middle" x="231.3922" y="-419.6968" font-family="Times,serif" font-size="14.00" fill="#000000">zed_camera_front: 1.874 m, 0.0 m, 1.286 m;</text>
<text text-anchor="middle" x="231.3922" y="-404.6968" font-family="Times,serif" font-size="14.00" fill="#000000">0.0°, 0.0°, 0.0°</text>
</g>
<!-- ouster_left -->
<g id="node4" class="node">
<title>ouster_left</title>
<ellipse fill="#ffffff" stroke="#000000" cx="449.1355" cy="-304.8968" rx="48.1917" ry="18"/>
<text text-anchor="middle" x="449.1355" y="-301.1968" font-family="Times,serif" font-size="14.00" fill="#000000">ouster_left</text>
</g>
<!-- base_link&#45;&gt;ouster_left -->
<g id="edge3" class="edge">
<title>base_link&#45;&gt;ouster_left</title>
<path fill="none" stroke="#000000" d="M58.0407,-241.0961C69.504,-253.9667 87.0077,-270.7036 106.3922,-278.8968 200.7628,-318.7842 322.7104,-316.8646 392.8007,-311.2736"/>
<polygon fill="#000000" stroke="#000000" points="393.5079,-314.7261 403.1741,-310.3887 392.9128,-307.7514 393.5079,-314.7261"/>
<text text-anchor="middle" x="231.3922" y="-332.6968" font-family="Times,serif" font-size="14.00" fill="#000000">ouster_left: 1.769 m, 0.58 m, 1.278 m;</text>
<text text-anchor="middle" x="231.3922" y="-317.6968" font-family="Times,serif" font-size="14.00" fill="#000000">0.0°, 0.0°, 0.0°</text>
</g>
<!-- ouster_right -->
<g id="node5" class="node">
<title>ouster_right</title>
<ellipse fill="#ffffff" stroke="#000000" cx="449.1355" cy="-250.8968" rx="53.0913" ry="18"/>
<text text-anchor="middle" x="449.1355" y="-247.1968" font-family="Times,serif" font-size="14.00" fill="#000000">ouster_right</text>
</g>
<!-- base_link&#45;&gt;ouster_right -->
<g id="edge4" class="edge">
<title>base_link&#45;&gt;ouster_right</title>
<path fill="none" stroke="#000000" d="M87.6868,-227.4828C93.962,-227.9741 100.3416,-228.4594 106.3922,-228.8968 204.1125,-235.9605 317.591,-243.0199 386.3401,-247.1705"/>
<polygon fill="#000000" stroke="#000000" points="386.3736,-250.6788 396.5659,-247.7863 386.7944,-243.6915 386.3736,-250.6788"/>
<text text-anchor="middle" x="231.3922" y="-263.6968" font-family="Times,serif" font-size="14.00" fill="#000000">ouster_right: 1.769 m, &#45;0.58 m, 1.278 m;</text>
<text text-anchor="middle" x="231.3922" y="-248.6968" font-family="Times,serif" font-size="14.00" fill="#000000">0.0°, 0.0°, 0.0°</text>
</g>
<!-- velodyne_left -->
<g id="node6" class="node">
<title>velodyne_left</title>
<ellipse fill="#ffffff" stroke="#000000" cx="449.1355" cy="-196.8968" rx="59.2899" ry="18"/>
<text text-anchor="middle" x="449.1355" y="-193.1968" font-family="Times,serif" font-size="14.00" fill="#000000">velodyne_left</text>
</g>
<!-- base_link&#45;&gt;velodyne_left -->
<g id="edge5" class="edge">
<title>base_link&#45;&gt;velodyne_left</title>
<path fill="none" stroke="#000000" d="M69.6261,-208.9721C80.5562,-203.3819 93.7137,-197.7073 106.3922,-194.8968 201.5743,-173.7971 315.3103,-180.5241 384.8651,-188.1021"/>
<polygon fill="#000000" stroke="#000000" points="384.8892,-191.627 395.219,-189.2722 385.6754,-184.6713 384.8892,-191.627"/>
<text text-anchor="middle" x="231.3922" y="-213.6968" font-family="Times,serif" font-size="14.00" fill="#000000">velodyne_left: 1.749 m, 0.703 m, 1.166 m;</text>
<text text-anchor="middle" x="231.3922" y="-198.6968" font-family="Times,serif" font-size="14.00" fill="#000000">0.0°, 0.0°, &#45;59.99999999999999°</text>
</g>
<!-- velodyne_right -->
<g id="node7" class="node">
<title>velodyne_right</title>
<ellipse fill="#ffffff" stroke="#000000" cx="449.1355" cy="-142.8968" rx="63.8893" ry="18"/>
<text text-anchor="middle" x="449.1355" y="-139.1968" font-family="Times,serif" font-size="14.00" fill="#000000">velodyne_right</text>
</g>
<!-- base_link&#45;&gt;velodyne_right -->
<g id="edge6" class="edge">
<title>base_link&#45;&gt;velodyne_right</title>
<path fill="none" stroke="#000000" d="M52.4464,-206.0791C62.2888,-187.1952 80.6996,-158.4093 106.3922,-145.8968 152.532,-123.4262 292.095,-129.8742 378.2407,-136.4724"/>
<polygon fill="#000000" stroke="#000000" points="378.2282,-139.9821 388.4716,-137.2759 378.7763,-133.0036 378.2282,-139.9821"/>
<text text-anchor="middle" x="231.3922" y="-164.6968" font-family="Times,serif" font-size="14.00" fill="#000000">velodyne_right: 1.749 m, &#45;0.703 m, 1.166 m;</text>
<text text-anchor="middle" x="231.3922" y="-149.6968" font-family="Times,serif" font-size="14.00" fill="#000000">0.0°, 0.0°, 59.99999999999999°</text>
</g>
<!-- sick -->
<g id="node8" class="node">
<title>sick</title>
<ellipse fill="#ffffff" stroke="#000000" cx="449.1355" cy="-88.8968" rx="27" ry="18"/>
<text text-anchor="middle" x="449.1355" y="-85.1968" font-family="Times,serif" font-size="14.00" fill="#000000">sick</text>
</g>
<!-- base_link&#45;&gt;sick -->
<g id="edge7" class="edge">
<title>base_link&#45;&gt;sick</title>
<path fill="none" stroke="#000000" d="M47.0117,-205.5078C52.5589,-176.4123 67.8975,-120.541 106.3922,-95.8968 156.0602,-64.0994 334.2299,-77.338 412.1805,-84.9404"/>
<polygon fill="#000000" stroke="#000000" points="412.1923,-88.4589 422.4907,-85.9704 412.8882,-81.4936 412.1923,-88.4589"/>
<text text-anchor="middle" x="231.3922" y="-114.6968" font-family="Times,serif" font-size="14.00" fill="#000000">sick: 3.707 m, &#45;0.351 m, 0.113 m;</text>
<text text-anchor="middle" x="231.3922" y="-99.6968" font-family="Times,serif" font-size="14.00" fill="#000000">0.0°, 0.0°, 0.0°</text>
</g>
<!-- duro_gps_imu -->
<g id="node9" class="node">
<title>duro_gps_imu</title>
<ellipse fill="#ffffff" stroke="#000000" cx="449.1355" cy="-34.8968" rx="61.99" ry="18"/>
<text text-anchor="middle" x="449.1355" y="-31.1968" font-family="Times,serif" font-size="14.00" fill="#000000">duro_gps_imu</text>
</g>
<!-- base_link&#45;&gt;duro_gps_imu -->
<g id="edge8" class="edge">
<title>base_link&#45;&gt;duro_gps_imu</title>
<path fill="none" stroke="#000000" d="M47.6958,-205.6748C56.1792,-163.6068 79.1604,-61.792 106.3922,-41.8968 191.9927,20.6419 324.4032,-.458 397.0428,-19.0833"/>
<polygon fill="#000000" stroke="#000000" points="396.3223,-22.513 406.8848,-21.686 398.1119,-15.7456 396.3223,-22.513"/>
<text text-anchor="middle" x="231.3922" y="-60.6968" font-family="Times,serif" font-size="14.00" fill="#000000">duro_gps_imu: 0.0 m, 0.0 m, 0.2 m;</text>
<text text-anchor="middle" x="231.3922" y="-45.6968" font-family="Times,serif" font-size="14.00" fill="#000000">0.0°, 0.0°, 0.0°</text>
</g>
</g>
</svg>
